custom-analysis
version=1
nRows=4
nColumns=98
inDegrees=no

This file contains tibia displacement and acting force.

Units are S.I. units (seconds, meters, Newtons, ...)
Angles are in degrees.

endheader
time	APT	SIT	knee_angle	aACL_R_force	pACL_R_force	aPCL_R_force	pPCL_R_force	aMCL_R_force	mMCL_R_force	pMCL_R_force	aLCL_R_force	mLCL_R_force	pLCL_R_force	aPCL_L_force	pPCL_L_force	aMCL_L_force	aLCL_L_force	aACL_R_length	pACL_R_length	aPCL_R_length	pPCL_R_length	aMCL_R_length	mMCL_R_length	pMCL_R_length	aLCL_R_length	mLCL_R_length	pLCL_R_length	aPCL_L_length	pPCL_L_length	aMCL_L_length	aLCL_L_length	aACL_R_strain	pACL_R_strain	aPCL_R_strain	pPCL_R_strain	aMCL_R_strain	mMCL_R_strain	pMCL_R_strain	aLCL_R_strain	mLCL_R_strain	pLCL_R_strain	aPCL_L_strain	pPCL_L_strain	aMCL_L_strain	aLCL_L_strain	femur_lat_meniscii_r.femur_lat_r.force.X	femur_lat_meniscii_r.femur_lat_r.force.Y	femur_lat_meniscii_r.femur_lat_r.force.Z	femur_lat_meniscii_r.femur_lat_r.torque.X	femur_lat_meniscii_r.femur_lat_r.torque.Y	femur_lat_meniscii_r.femur_lat_r.torque.Z	femur_lat_meniscii_r.meniscus_lat_r.force.X	femur_lat_meniscii_r.meniscus_lat_r.force.Y	femur_lat_meniscii_r.meniscus_lat_r.force.Z	femur_lat_meniscii_r.meniscus_lat_r.torque.X	femur_lat_meniscii_r.meniscus_lat_r.torque.Y	femur_lat_meniscii_r.meniscus_lat_r.torque.Z	femur_med_meniscii_r.femur_med_r.force.X	femur_med_meniscii_r.femur_med_r.force.Y	femur_med_meniscii_r.femur_med_r.force.Z	femur_med_meniscii_r.femur_med_r.torque.X	femur_med_meniscii_r.femur_med_r.torque.Y	femur_med_meniscii_r.femur_med_r.torque.Z	femur_med_meniscii_r.meniscus_med_r.force.X	femur_med_meniscii_r.meniscus_med_r.force.Y	femur_med_meniscii_r.meniscus_med_r.force.Z	femur_med_meniscii_r.meniscus_med_r.torque.X	femur_med_meniscii_r.meniscus_med_r.torque.Y	femur_med_meniscii_r.meniscus_med_r.torque.Z	femur_med_tibia_r.tibia_upper_r.force.X	femur_med_tibia_r.tibia_upper_r.force.Y	femur_med_tibia_r.tibia_upper_r.force.Z	femur_med_tibia_r.tibia_upper_r.torque.X	femur_med_tibia_r.tibia_upper_r.torque.Y	femur_med_tibia_r.tibia_upper_r.torque.Z	femur_med_tibia_r.femur_med_r.force.X	femur_med_tibia_r.femur_med_r.force.Y	femur_med_tibia_r.femur_med_r.force.Z	femur_med_tibia_r.femur_med_r.torque.X	femur_med_tibia_r.femur_med_r.torque.Y	femur_med_tibia_r.femur_med_r.torque.Z	femur_lat_tibia_r.tibia_upper_r.force.X	femur_lat_tibia_r.tibia_upper_r.force.Y	femur_lat_tibia_r.tibia_upper_r.force.Z	femur_lat_tibia_r.tibia_upper_r.torque.X	femur_lat_tibia_r.tibia_upper_r.torque.Y	femur_lat_tibia_r.tibia_upper_r.torque.Z	femur_lat_tibia_r.femur_lat_r.force.X	femur_lat_tibia_r.femur_lat_r.force.Y	femur_lat_tibia_r.femur_lat_r.force.Z	femur_lat_tibia_r.femur_lat_r.torque.X	femur_lat_tibia_r.femur_lat_r.torque.Y	femur_lat_tibia_r.femur_lat_r.torque.Z	femur_lat_meniscii_force_r	femur_med_meniscii_force_r	femur_lat_tibia_force_r	femur_med_tibia_force_r
      0.00000000	      0.00000000	      0.00000000	     80.00011296	      5.45110855	      2.57700792	    952.72366576	    575.94644523	      3.07569028	      0.00000000	      0.00000000	      0.00000000	      0.00000000	      0.00000000	      0.00000000	      0.00000000	      0.00000001	      0.00000000	      0.03184139	      0.02552320	      0.03718873	      0.03394640	      0.06131633	      0.05979215	      0.05635569	      0.05035908	      0.04492226	      0.03991752	      0.01525851	      0.01651186	      0.06550154	      0.04489616	      0.02695950	      0.01853648	      0.19595969	      0.13579445	      0.02147914	     -0.00002265	     -0.04039488	     -0.10036440	     -0.20235477	     -0.23738133	      0.00000079	     -0.32847694	      0.00000060	     -0.00000086	    134.31803728	      3.89186243	      9.17448209	     -3.75597577	      3.27383673	     54.53520610	   -134.31803728	     -3.89186243	     -9.17448209	      0.16446053	     -4.16681269	     -1.57520099	      3.83890831	     -2.20164917	     -2.46562994	      0.95815733	     -0.06403426	      1.54882237	     -3.83890831	      2.20164917	      2.46562994	      0.00147505	      0.11110932	     -0.09673992	  -3917.46870617	   -904.04024558	   1613.97861329	    -31.41794839	     90.72423676	    -25.29643348	   3917.46870617	    904.04024558	  -1613.97861329	    670.91284830	    -66.69392664	   1590.94643950	      0.00000000	      0.00000000	      0.00000000	      0.00000000	      0.00000000	      0.00000000	      0.00000000	      0.00000000	      0.00000000	      0.00000000	      0.00000000	      0.00000000	    134.68724087	      5.06594582	      0.00000000	   4332.29463375
      0.00049316	      0.00001255	     -0.00005139	     80.00011296	     28.41864504	     16.97101957	   1022.51072426	    737.93465544	    147.16184533	    143.19828202	      0.00000000	      0.00000000	      0.00000000	      0.00000000	      0.00000000	      0.00000000	      0.00000001	      0.00000000	      0.03185627	      0.02553167	      0.03723826	      0.03399465	      0.06137356	      0.05984936	      0.05641400	      0.05041701	      0.04498077	      0.03997556	      0.01525851	      0.01651186	      0.06550154	      0.04489616	      0.02743936	      0.01887462	      0.19755274	      0.13740883	      0.02243255	      0.00093423	     -0.03940203	     -0.09932960	     -0.20131596	     -0.23627251	      0.00000079	     -0.32847694	      0.00000060	     -0.00000086	     39.96280008	    -28.25345951	     99.65917282	    -39.76332391	      2.24441373	     16.60675287	    -39.96280008	     28.25345951	    -99.65917282	      0.40947282	     -5.08202463	     -1.63053225	      1.75841487	     -2.35343168	     -0.40372904	      0.13527869	     -0.02276245	      0.72158494	     -1.75841487	      2.35343168	      0.40372904	      0.01239153	      0.02511029	     -0.09210322	  -2730.75677684	   -536.80050840	    690.20608952	    -14.64627494	     46.98687123	    -21.15970221	   2730.75677684	    536.80050840	   -690.20608952	    288.82287672	    -41.66122101	   1110.06406936	      0.00000000	      0.00000000	      0.00000000	      0.00000000	      0.00000000	      0.00000000	      0.00000000	      0.00000000	      0.00000000	      0.00000000	      0.00000000	      0.00000000	    111.02807795	      2.96541070	      0.00000000	   2867.32833943
      0.00098632	      0.00004719	     -0.00015127	     80.00011296	     35.55454535	     18.46212842	   1046.83150176	    770.33295316	    178.85211991	    172.06023494	      0.00000000	      0.00000000	      0.00000000	      0.00000000	      0.00000000	      0.00000000	      0.00000001	      0.00000000	      0.03189093	      0.02555147	      0.03733061	      0.03408388	      0.06148611	      0.05996076	      0.05652669	      0.05052902	      0.04509359	      0.04008646	      0.01525851	      0.01651186	      0.06550154	      0.04489616	      0.02855725	      0.01966452	      0.20052263	      0.14039446	      0.02430755	      0.00279732	     -0.03748313	     -0.09732856	     -0.19931260	     -0.23415379	      0.00000079	     -0.32847694	      0.00000060	     -0.00000086	     27.75335211	    -39.99949682	    106.26563261	    -42.17342291	      2.05419424	     11.80047598	    -27.75335211	     39.99949682	   -106.26563261	      0.16434731	     -4.99533190	     -1.93605778	      1.15516702	     -1.78908902	     -0.11569711	      0.02676143	     -0.01346654	      0.47640455	     -1.15516702	      1.78908902	      0.11569711	      0.01048291	      0.01117516	     -0.06910902	  -1880.16826120	   -295.26696686	    404.47187525	     -8.41661370	     29.52864076	    -17.41663858	   1880.16826120	    295.26696686	   -404.47187525	    168.97580118	    -27.53701282	    765.22228044	      0.00000000	      0.00000000	      0.00000000	      0.00000000	      0.00000000	      0.00000000	      0.00000000	      0.00000000	      0.00000000	      0.00000000	      0.00000000	      0.00000000	    116.88709498	      2.13275319	      0.00000000	   1945.71651841
      0.00147948	      0.00010061	     -0.00024714	     80.00011296	     30.07596935	      7.99867743	   1044.21795491	    736.80756797	    155.19879434	    145.20619421	      0.00000000	      0.00000000	      0.00000000	      0.00000000	      0.00000000	      0.00000000	      0.00000001	      0.00000000	      0.03192524	      0.02556482	      0.03741430	      0.03416383	      0.06159859	      0.06007037	      0.05663686	      0.05063800	      0.04520312	      0.04019266	      0.01525851	      0.01651186	      0.06550154	      0.04489616	      0.02966371	      0.02019754	      0.20321384	      0.14306948	      0.02618135	      0.00463047	     -0.03560717	     -0.09538161	     -0.19736778	     -0.23212478	      0.00000079	     -0.32847694	      0.00000060	     -0.00000086	     40.22869761	    -52.30922249	    111.42310190	    -43.98522958	      2.40542465	     17.01615764	    -40.22869761	     52.30922249	   -111.42310190	     -0.10976409	     -5.52502482	     -2.56044532	      1.06252613	     -1.41821194	     -0.01949018	     -0.00737386	     -0.01148602	      0.43623267	     -1.06252613	      1.41821194	      0.01949018	      0.00868078	      0.00723135	     -0.05539209	  -1327.31500248	   -158.10586390	    276.52514176	     -5.39040792	     20.31801149	    -14.20131306	   1327.31500248	    158.10586390	   -276.52514176	    114.95045449	    -18.98118155	    540.85163214	      0.00000000	      0.00000000	      0.00000000	      0.00000000	      0.00000000	      0.00000000	      0.00000000	      0.00000000	      0.00000000	      0.00000000	      0.00000000	      0.00000000	    129.49791699	      1.77219264	      0.00000000	   1365.00136778
